<?xml version="1.0" encoding="utf-8"?>
<!-- Generator: Adobe Illustrator 28.3.0, SVG Export Plug-In . SVG Version: 6.00 Build 0)  -->
<svg version="1.1" id="Layer_1" xmlns="http://www.w3.org/2000/svg" xmlns:xlink="http://www.w3.org/1999/xlink" x="0px" y="0px"
	 viewBox="0 0 530.8 383.7" style="enable-background:new 0 0 530.8 383.7;" xml:space="preserve">
<style type="text/css">
	.st0{fill:#FFFFFF;}
</style>
<path class="st0" d="M475,141.5V284c-2.2,0.7-44.8,0.8-47.8,0.1v-10.6c-30.6,0-60.8,0-91.5,0c0,2.7,0,5.1,0,7.5c0,3.5,0,3.5-3.5,3.5
	c-11.1,0-22.2,0-33.3,0c-0.9,0-1.9,0-2.9,0c-0.7-2.9-1.4-5.5-0.7-8.2c0.2-0.8,0.2-1.7,0.3-2.6c0.3-5.5,0.4-11,0.8-16.5
	c0.6-8.9,1.8-17.6,4.3-26.2c2.4-8.5,6.4-16.2,12.1-22.9c8.3-9.9,18.4-17.6,30.3-22.7c7.3-3.2,14.9-5.1,22.8-6.3
	c7.4-1.1,14.8-1.3,22.2-0.9c11,0.6,21.7,2.7,32,7.1c1.8,0.8,3.4,1.7,5.2,2.5c0.7,0.3,1.4,0.6,2.1,1c0.6-2.2,0.6-41.3,0.1-43.9
	c-4.2-1-8.5-2-12.6-3.1c-8.7-2.4-16.7-6.5-24-11.8c-7.5-5.5-13.6-12.2-18.6-20c-3.2-5-5.8-10.3-7.8-15.9c-1.9-5.4-3-10.9-4.3-16.4
	c-0.4-1.6-0.6-3.3-0.6-4.9c-0.3-6.1-0.5-12.2-0.7-18.3c0-0.2,0.1-0.5,0.3-1.1c13.1,0,26.4-0.1,39.9,0c0.1,1.5,0.2,2.7,0.2,3.8
	c-0.3,6.9,0.7,13.6,2.5,20.2c1.7,6.4,4.6,12.2,9,17.2c5.1,5.7,11.6,9.4,19,11.3c4,1,8.1,1.8,12.4,1.7c2.9-0.1,5.8,0.2,8.6-0.1
	c8-0.6,15.3-2.8,21.7-7.8c7.7-6,12.1-14,14.7-23.1c1.3-4.3,2.3-8.7,2.8-13.2c0.4-3.2,0.5-6.4,0.7-9.5c2.4-0.8,37.1-0.8,39.9-0.1
	c0.1,0.2,0.2,0.5,0.2,0.7c-0.4,3.5-0.7,7.1-1.1,10.6c-0.1,0.6-0.2,1.2-0.2,1.8c-0.5,4.4-0.8,8.8-1.6,13.2c-0.8,4.8-1.8,9.6-3.2,14.2
	c-2.6,8.7-7,16.4-13,23.3C501.7,128.7,489.7,136.6,475,141.5L475,141.5z M421.8,239.6c-1-1.8-1.8-3.3-2.6-4.8
	c-2.6-4.6-6.4-8.3-10.7-11.3c-7.2-5-15.6-6.9-24.2-7.3c-4.2-0.2-8.6-0.1-12.8,0.6c-12.9,2-22.8,8.6-28.9,20.4
	c-0.4,0.7-0.6,1.5-1,2.4L421.8,239.6L421.8,239.6z"/>
<path class="st0" d="M155.8,34.5c0,43,0,86.1,0,129.1c0,43,0,85.9,0,129.2h25c0.7,2.1,0.8,41.4,0.2,44.8c-8.2,0.1-16.4,0-25.1,0.1
	c-0.1,1.1-0.1,2.1-0.1,3.1c0,13.3,0,26.6,0,39.9c0,1,0,2,0,3.2h-46.5v-46.2c-36.5,0-72.7,0-109.3,0c1.7-3.4,3.1-6.3,4.5-9.1
	c1.1-2.3,2.4-4.5,3.5-6.7c4.6-9.1,9.2-18.1,13.9-27.2c3.6-7,7.2-13.9,10.8-20.9c3.8-7.3,7.5-14.5,11.2-21.8
	c2.2-4.3,4.3-8.5,6.5-12.8c3.7-7.3,7.5-14.5,11.2-21.8c3.3-6.4,6.4-12.8,9.7-19.1c3.6-7.1,7.3-14.1,10.9-21.1
	c3.5-6.8,6.9-13.7,10.4-20.5c4.2-8.2,8.4-16.4,12.6-24.7c3.7-7.2,7.3-14.4,11.1-21.6c3.6-6.9,7.2-13.7,10.7-20.6
	c3.1-5.9,6.1-11.9,9.1-17.9c3.9-7.6,7.8-15.2,11.7-22.8c2.2-4.3,4.4-8.7,6.6-13c0.3-0.5,0.6-1,0.9-1.5L155.8,34.5L155.8,34.5z
	 M109.3,292.6c0-29.2,0-58.1,0-87c0-0.5-0.1-1-0.1-1.6c0-0.1-0.1-0.1-0.2-0.2c-0.1-0.1-0.2-0.1-0.6-0.2
	c-15.1,29.6-30.2,59.1-45.5,89H109.3z"/>
<path class="st0" d="M169.1,0.6c1.2-0.2,2.4-0.6,3.7-0.6c19.1,0,38.1-0.1,57.2,0c5.5,0,11,0.6,16.4,0.9c3.5,0.2,7,0.3,10.4,0.7
	C269.8,3,282.3,5.6,293.8,12c6,3.4,11.7,7.3,16.6,12.2c5.6,5.5,10.5,11.6,14.1,18.6c2.9,5.5,4.9,11.3,6.4,17.3
	c1.4,5.6,1.9,11.1,1.9,16.8c0,5.7,0.1,11.3-1.2,16.9c-1.9,8.6-4.7,16.8-9.5,24.4c-8,12.4-19.1,21.1-32.1,27.5
	c-7.9,3.9-16.4,6.4-25,8.1c-6.3,1.2-12.7,2-19.1,2.5c-9.6,0.7-19.2,0.2-28.8,0.4c-0.9,0-1.7,0.1-2.8,0.1c-0.1,1.3-0.1,2.5-0.1,3.7
	c0,33.1,0,66.2,0,99.3c0,1.2-0.1,2.4-0.2,3.9c-15,0-29.9,0.1-44.5,0C168.8,261.6,168.6,4.5,169.1,0.6L169.1,0.6z M214.1,119.8
	c0.9,0.1,1.4,0.3,1.9,0.3c9.6,0,19.2,0.1,28.7-0.9c7.2-0.7,14.3-2,21.1-4.6c9.1-3.5,16.8-8.9,21.2-18c1.5-3.1,2.7-6.5,3.3-9.8
	c0.7-4,0.6-8.2,0.7-12.2c0.1-5.2-1.5-10-3.6-14.6c-0.8-1.7-1.8-3.5-3-4.9c-4.3-5.4-9.8-9.4-16.2-12c-8.5-3.6-17.5-5.3-26.6-5.9
	c-8.2-0.6-16.4-0.5-24.6-0.7c-0.9,0-1.7,0.1-2.9,0.2C214.1,64.5,214,92.1,214.1,119.8L214.1,119.8z"/>
<path class="st0" d="M278.3,294.4h90.4c0.1,0.9,0.4,1.6,0.4,2.2c0,12.9,0.1,25.9,0.1,38.8c0,0.6-0.2,1.2-0.3,2.1
	c-45.7-0.1-91.4,0-137.2-0.1v-145c1.9-0.7,41.2-1,46.4-0.3c0.1,1,0.2,2.1,0.2,3.2c0,21.7,0,43.3,0,65c0,10.2,0,20.5,0,30.7
	C278.3,292.1,278.3,293.1,278.3,294.4L278.3,294.4z"/>
</svg>
