<?xml version="1.0" encoding="UTF-8"?>
<svg id="Layer_1" data-name="Layer 1" xmlns="http://www.w3.org/2000/svg" viewBox="0 0 530.83 383.7">
  <defs>
    <style>
      .cls-1 {
        fill: #fff;
      }
    </style>
  </defs>
  <path d="M475.05,141.51v142.54c-2.2,.67-44.82,.77-47.81,.12v-10.64c-30.57-.02-60.83,0-91.46,0,0,2.69,0,5.11,0,7.52,0,3.52-.01,3.53-3.45,3.54-11.1,0-22.2,0-33.3,0-.94,0-1.88,0-2.88,0-.7-2.9-1.43-5.47-.68-8.21,.23-.83,.22-1.73,.26-2.6,.26-5.49,.37-10.99,.78-16.47,.65-8.85,1.81-17.65,4.27-26.2,2.43-8.46,6.4-16.22,12.07-22.94,8.32-9.86,18.38-17.55,30.26-22.72,7.3-3.17,14.92-5.12,22.8-6.32,7.39-1.12,14.81-1.31,22.21-.9,11,.61,21.74,2.73,31.95,7.05,1.76,.75,3.44,1.69,5.17,2.53,.69,.33,1.39,.64,2.11,.97,.56-2.18,.65-41.28,.15-43.93-4.23-1.04-8.47-1.98-12.64-3.15-8.73-2.44-16.66-6.48-24.02-11.82-7.53-5.47-13.64-12.23-18.59-19.98-3.17-4.96-5.8-10.26-7.76-15.91-1.86-5.37-3.04-10.86-4.28-16.36-.36-1.6-.56-3.27-.63-4.91-.27-6.1-.46-12.2-.67-18.3,0-.25,.13-.5,.31-1.13,13.14-.05,26.37-.11,39.89,.04,.08,1.47,.23,2.67,.18,3.85-.27,6.86,.74,13.57,2.48,20.16,1.68,6.37,4.58,12.23,9.01,17.17,5.13,5.73,11.59,9.42,19.02,11.34,4.04,1.04,8.14,1.78,12.35,1.72,2.87-.05,5.75,.15,8.61-.05,7.96-.56,15.31-2.84,21.74-7.82,7.71-5.97,12.06-13.96,14.72-23.12,1.26-4.34,2.26-8.73,2.81-13.2,.4-3.18,.51-6.4,.74-9.51,2.35-.77,37.13-.84,39.87-.14,.07,.21,.23,.46,.21,.7-.36,3.54-.74,7.08-1.12,10.62-.06,.61-.15,1.21-.22,1.81-.52,4.39-.84,8.82-1.6,13.17-.83,4.77-1.78,9.56-3.19,14.19-2.64,8.66-6.97,16.44-13.03,23.27-9.95,11.21-22.01,19.15-36.61,24.04Zm-53.21,98.13c-.98-1.81-1.77-3.32-2.6-4.8-2.62-4.65-6.35-8.29-10.68-11.28-7.24-5.02-15.56-6.85-24.16-7.32-4.23-.24-8.57-.09-12.76,.57-12.91,2.04-22.79,8.59-28.87,20.4-.37,.72-.62,1.5-1,2.43h80.06Z"/>
  <path d="M155.75,34.45c.04,43.04,0,86.07,0,129.11,0,42.96,0,85.93,0,129.17h25c.67,2.1,.84,41.37,.21,44.75-8.18,.12-16.45,0-25.06,.07-.06,1.14-.15,2.15-.15,3.15,0,13.28,0,26.56,0,39.85,0,1.02,0,2.04,0,3.16h-46.48v-46.17c-36.53-.05-72.72,0-109.3-.02,1.67-3.4,3.06-6.28,4.51-9.14,1.14-2.26,2.37-4.47,3.52-6.72,4.63-9.06,9.22-18.14,13.86-27.19,3.58-6.97,7.22-13.91,10.81-20.87,3.75-7.26,7.48-14.53,11.21-21.81,2.18-4.26,4.31-8.54,6.49-12.8,3.73-7.28,7.51-14.53,11.23-21.82,3.25-6.36,6.41-12.76,9.66-19.11,3.61-7.05,7.29-14.06,10.91-21.11,3.49-6.82,6.93-13.67,10.4-20.5,4.18-8.22,8.36-16.44,12.56-24.66,3.68-7.2,7.35-14.41,11.05-21.6,3.55-6.89,7.16-13.74,10.71-20.63,3.06-5.95,6.05-11.95,9.1-17.91,3.89-7.6,7.8-15.18,11.69-22.78,2.22-4.34,4.4-8.7,6.61-13.05,.26-.51,.61-.98,.92-1.46l.52,.09Zm-46.45,258.18c0-29.22,0-58.11,0-87,0-.52-.07-1.04-.12-1.56,0-.06-.09-.13-.16-.17-.07-.05-.16-.07-.59-.25-15.1,29.56-30.22,59.14-45.46,88.98h46.33Z"/>
  <path d="M169.15,.6c1.18-.18,2.44-.55,3.7-.55,19.05-.03,38.1-.09,57.15,.03,5.48,.03,10.96,.6,16.44,.92,3.47,.21,6.96,.3,10.42,.67,12.89,1.36,25.44,3.91,36.94,10.32,6.05,3.37,11.66,7.34,16.58,12.18,5.59,5.51,10.48,11.58,14.14,18.63,2.86,5.53,4.89,11.26,6.39,17.31,1.37,5.56,1.9,11.1,1.88,16.77-.01,5.66,.1,11.33-1.16,16.91-1.94,8.6-4.66,16.84-9.51,24.38-7.99,12.43-19.09,21.06-32.13,27.48-7.94,3.91-16.35,6.4-25,8.1-6.32,1.25-12.7,2.01-19.15,2.48-9.6,.71-19.2,.22-28.8,.44-.85,.02-1.71,.07-2.81,.12-.05,1.34-.14,2.54-.14,3.73,0,33.12,.01,66.23,0,99.35,0,1.19-.11,2.39-.18,3.9-15.04,0-29.85,.08-44.54,0-.6-2.19-.75-259.29-.22-263.17Zm44.96,119.22c.85,.12,1.35,.26,1.85,.26,9.59,0,19.16,.11,28.74-.86,7.23-.73,14.3-1.97,21.06-4.58,9.12-3.53,16.79-8.95,21.16-18.01,1.5-3.1,2.74-6.47,3.32-9.84,.68-4.01,.62-8.15,.68-12.24,.08-5.15-1.45-9.97-3.61-14.58-.81-1.73-1.76-3.45-2.96-4.93-4.34-5.39-9.78-9.36-16.17-12.05-8.52-3.6-17.51-5.26-26.64-5.89-8.18-.56-16.41-.47-24.62-.65-.85-.02-1.7,.1-2.87,.18,0,27.85-.08,55.49,.04,83.22Z"/>
  <path d="M278.34,294.42h90.41c.15,.92,.35,1.57,.35,2.23,.04,12.93,.06,25.87,.07,38.8,0,.59-.16,1.18-.3,2.09-45.74-.06-91.39,.05-137.19-.06V192.51c1.93-.7,41.25-.98,46.41-.33,.07,1.02,.2,2.11,.2,3.2,.01,21.67,0,43.34,.01,65.01,0,10.22,0,20.45,.01,30.67,0,1.02,0,2.04,0,3.36Z"/>
  <path class="cls-1" d="M421.84,239.65h-80.06c.38-.93,.63-1.71,1-2.43,6.08-11.81,15.96-18.37,28.87-20.4,4.18-.66,8.52-.81,12.76-.57,8.6,.48,16.92,2.31,24.16,7.32,4.32,3,8.06,6.63,10.68,11.28,.83,1.48,1.62,2.99,2.6,4.8Z"/>
  <path class="cls-1" d="M109.3,292.63H62.97c15.24-29.84,30.36-59.42,45.46-88.98,.43,.18,.51,.2,.59,.25,.06,.04,.15,.11,.16,.17,.05,.52,.12,1.04,.12,1.56,0,28.89,0,57.78,0,87Z"/>
  <path class="cls-1" d="M214.11,119.81c-.12-27.73-.04-55.37-.04-83.22,1.17-.08,2.02-.2,2.87-.18,8.21,.18,16.43,.09,24.62,.65,9.13,.63,18.12,2.3,26.64,5.89,6.38,2.69,11.83,6.66,16.17,12.05,1.19,1.48,2.14,3.2,2.96,4.93,2.16,4.61,3.69,9.43,3.61,14.58-.06,4.09,0,8.24-.68,12.24-.57,3.38-1.82,6.74-3.32,9.84-4.37,9.06-12.04,14.49-21.16,18.01-6.76,2.61-13.83,3.85-21.06,4.58-9.58,.97-19.16,.85-28.74,.86-.5,0-1-.13-1.85-.26Z"/>
</svg>