<?xml version="1.0" encoding="utf-8"?>
<!-- Generator: Adobe Illustrator 28.3.0, SVG Export Plug-In . SVG Version: 6.00 Build 0)  -->
<svg version="1.1" id="Layer_1" xmlns="http://www.w3.org/2000/svg" xmlns:xlink="http://www.w3.org/1999/xlink" x="0px" y="0px"
	 viewBox="0 0 538.9 396.7" style="enable-background:new 0 0 538.9 396.7;" xml:space="preserve">
<style type="text/css">
	.st0{fill:#185416;}
	.st1{fill:#DE7522;}
</style>
<g>
	<path class="st0" d="M538.7,66.7c-2.7-0.7-37.5-0.6-39.9,0.1c-0.2,3.1-0.3,6.3-0.7,9.5c-0.5,4.5-1.5,8.9-2.8,13.2
		c-2.7,9.2-7,17.2-14.7,23.1c-6.4,5-13.8,7.3-21.7,7.8c-2.9,0.2-5.7,0-8.6,0c-4.2,0.1-8.3-0.7-12.4-1.7c-7.4-1.9-13.9-5.6-19-11.3
		c-4.4-4.9-7.3-10.8-9-17.2c-1.7-6.6-2.8-13.3-2.5-20.2c0.1-1.2-0.1-2.4-0.2-3.9c-13.5-0.1-26.8-0.1-39.9,0
		c-0.2,0.6-0.3,0.9-0.3,1.1c0.2,6.1,0.4,12.2,0.7,18.3c0.1,1.6,0.3,3.3,0.6,4.9c1.2,5.5,2.4,11,4.3,16.4c2,5.6,4.6,11,7.8,15.9
		c5,7.8,11.1,14.5,18.6,20c7.4,5.3,15.3,9.4,24,11.8c4.2,1.2,8.4,2.1,12.6,3.2c0.5,2.6,0.4,41.8-0.1,43.9c-0.7-0.3-1.4-0.6-2.1-1
		c-1.7-0.8-3.4-1.8-5.2-2.5c-10.2-4.3-21-6.4-32-7c-7.4-0.4-14.8-0.2-22.2,0.9c-7.9,1.2-15.5,3.2-22.8,6.3
		c-11.9,5.2-21.9,12.9-30.3,22.7c-5.7,6.7-9.6,14.5-12.1,22.9c-2.5,8.5-3.6,17.3-4.3,26.2c-0.4,5.5-0.5,11-0.8,16.5
		c0,0.9,0,1.8-0.3,2.6c-0.8,2.7,0,5.3,0.7,8.2c1,0,1.9,0,2.9,0c11.1,0,22.2,0,33.3,0c3.4,0,3.5,0,3.5-3.5c0-2.4,0-4.8,0-7.5
		c30.6,0,60.9,0,91.5,0v10.6c3,0.6,45.6,0.5,47.8-0.1V154.5l0,0c14.6-4.9,26.7-12.8,36.6-24c6.1-6.8,10.4-14.6,13-23.3
		c1.4-4.6,2.4-9.4,3.2-14.2c0.8-4.4,1.1-8.8,1.6-13.2c0.1-0.6,0.2-1.2,0.2-1.8c0.4-3.5,0.8-7.1,1.1-10.6
		C538.9,67.2,538.7,66.9,538.7,66.7z M429.9,252.6h-80.1c0.4-0.9,0.6-1.7,1-2.4c6.1-11.8,16-18.4,28.9-20.4
		c4.2-0.7,8.5-0.8,12.8-0.6c8.6,0.5,16.9,2.3,24.2,7.3c4.3,3,8.1,6.6,10.7,11.3C428.1,249.3,428.9,250.8,429.9,252.6L429.9,252.6z"
		/>
	<path class="st0" d="M163.8,305.7c0-43.2,0-86.2,0-129.2c0-43,0-86.1,0-129.1l0,0l-0.5-0.1c-0.3,0.5-0.7,1-0.9,1.5
		c-2.2,4.3-4.4,8.7-6.6,13c-3.9,7.6-7.8,15.2-11.7,22.8c-3.1,6-6,12-9.1,17.9c-3.5,6.9-7.2,13.7-10.7,20.6
		c-3.7,7.2-7.4,14.4-11,21.6c-4.2,8.2-8.4,16.4-12.6,24.7c-3.5,6.8-6.9,13.7-10.4,20.5c-3.6,7.1-7.3,14.1-10.9,21.1
		c-3.2,6.3-6.4,12.8-9.7,19.1c-3.7,7.3-7.5,14.5-11.2,21.8c-2.2,4.3-4.3,8.5-6.5,12.8c-3.7,7.3-7.5,14.5-11.2,21.8
		c-3.6,7-7.2,13.9-10.8,20.9c-4.6,9-9.2,18.1-13.9,27.2c-1.1,2.2-2.4,4.5-3.5,6.7c-1.5,2.9-2.8,5.7-4.5,9.1c36.6,0,72.8,0,109.3,0
		v46.2h46.5c0-1.1,0-2.1,0-3.2c0-13.3,0-26.6,0-39.9c0-1,0.1-2,0.2-3.1c8.6-0.1,16.9,0,25.1-0.1c0.6-3.4,0.5-42.7-0.2-44.8H163.8z
		 M117.3,305.6H71c15.2-29.8,30.4-59.4,45.5-89c0.4,0.2,0.5,0.2,0.6,0.2c0.1,0,0.2,0.1,0.2,0.2c0,0.5,0.1,1,0.1,1.6
		C117.3,247.5,117.3,276.4,117.3,305.6z"/>
	<path class="st0" d="M273,166.7c8.6-1.7,17.1-4.2,25-8.1c13-6.4,24.1-15.1,32.1-27.5c4.8-7.5,7.6-15.8,9.5-24.4
		c1.3-5.6,1.1-11.2,1.2-16.9c0-5.7-0.5-11.2-1.9-16.8c-1.5-6-3.5-11.8-6.4-17.3c-3.7-7-8.5-13.1-14.1-18.6
		c-4.9-4.8-10.5-8.8-16.6-12.2c-11.5-6.4-24-9-36.9-10.3c-3.5-0.4-7-0.5-10.4-0.7c-5.5-0.3-11-0.9-16.4-0.9c-19-0.1-38.1-0.1-57.2,0
		c-1.3,0-2.5,0.4-3.7,0.5c-0.5,3.9-0.4,261,0.2,263.2c14.7,0.1,29.5,0,44.5,0c0.1-1.5,0.2-2.7,0.2-3.9c0-33.1,0-66.2,0-99.3
		c0-1.2,0.1-2.4,0.1-3.7c1.1,0,2-0.1,2.8-0.1c9.6-0.2,19.2,0.3,28.8-0.4C260.3,168.8,266.7,168,273,166.7z M224,133.1
		c-0.5,0-1-0.1-1.9-0.3l0,0c-0.1-27.7,0-55.4,0-83.2c1.2-0.1,2-0.2,2.9-0.2c8.2,0.2,16.4,0.1,24.6,0.6c9.1,0.6,18.1,2.3,26.6,5.9
		c6.4,2.7,11.8,6.7,16.2,12c1.2,1.5,2.2,3.2,3,4.9c2.2,4.6,3.7,9.4,3.6,14.6c-0.1,4.1,0,8.2-0.7,12.2c-0.6,3.4-1.8,6.7-3.3,9.8
		c-4.4,9.1-12,14.5-21.2,18c-6.8,2.6-13.8,3.8-21.1,4.6C243.1,133.2,233.6,133.1,224,133.1z"/>
	<path class="st0" d="M376.8,307.4h-90.4h0c0-1.3,0-2.3,0-3.4c0-10.2,0-20.5,0-30.7c0-21.7,0-43.3,0-65c0-1.1-0.1-2.2-0.2-3.2
		c-5.2-0.7-44.5-0.4-46.4,0.3v145c45.8,0.1,91.5,0,137.2,0.1c0.1-0.9,0.3-1.5,0.3-2.1c0-12.9,0-25.9-0.1-38.8
		C377.1,309,376.9,308.3,376.8,307.4z"/>
</g>
<g>
	<path class="st1" d="M530.7,53.7c-2.7-0.7-37.5-0.6-39.9,0.1c-0.2,3.1-0.3,6.3-0.7,9.5c-0.5,4.5-1.5,8.9-2.8,13.2
		c-2.7,9.2-7,17.2-14.7,23.1c-6.4,5-13.8,7.3-21.7,7.8c-2.9,0.2-5.7,0-8.6,0c-4.2,0.1-8.3-0.7-12.4-1.7c-7.4-1.9-13.9-5.6-19-11.3
		c-4.4-4.9-7.3-10.8-9-17.2c-1.7-6.6-2.8-13.3-2.5-20.2c0.1-1.2-0.1-2.4-0.2-3.9c-13.5-0.1-26.8-0.1-39.9,0
		c-0.2,0.6-0.3,0.9-0.3,1.1c0.2,6.1,0.4,12.2,0.7,18.3c0.1,1.6,0.3,3.3,0.6,4.9c1.2,5.5,2.4,11,4.3,16.4c2,5.6,4.6,11,7.8,15.9
		c5,7.8,11.1,14.5,18.6,20c7.4,5.3,15.3,9.4,24,11.8c4.2,1.2,8.4,2.1,12.6,3.2c0.5,2.6,0.4,41.8-0.1,43.9c-0.7-0.3-1.4-0.6-2.1-1
		c-1.7-0.8-3.4-1.8-5.2-2.5c-10.2-4.3-21-6.4-32-7c-7.4-0.4-14.8-0.2-22.2,0.9c-7.9,1.2-15.5,3.2-22.8,6.3
		c-11.9,5.2-21.9,12.9-30.3,22.7c-5.7,6.7-9.6,14.5-12.1,22.9c-2.5,8.5-3.6,17.3-4.3,26.2c-0.4,5.5-0.5,11-0.8,16.5
		c0,0.9,0,1.8-0.3,2.6c-0.8,2.7,0,5.3,0.7,8.2c1,0,1.9,0,2.9,0c11.1,0,22.2,0,33.3,0c3.4,0,3.5,0,3.5-3.5c0-2.4,0-4.8,0-7.5
		c30.6,0,60.9,0,91.5,0v10.6c3,0.6,45.6,0.5,47.8-0.1V141.5l0,0c14.6-4.9,26.7-12.8,36.6-24c6.1-6.8,10.4-14.6,13-23.3
		c1.4-4.6,2.4-9.4,3.2-14.2c0.8-4.4,1.1-8.8,1.6-13.2c0.1-0.6,0.2-1.2,0.2-1.8c0.4-3.5,0.8-7.1,1.1-10.6
		C530.9,54.2,530.7,53.9,530.7,53.7z M421.9,239.6h-80.1c0.4-0.9,0.6-1.7,1-2.4c6.1-11.8,16-18.4,28.9-20.4
		c4.2-0.7,8.5-0.8,12.8-0.6c8.6,0.5,16.9,2.3,24.2,7.3c4.3,3,8.1,6.6,10.7,11.3C420.1,236.3,420.9,237.8,421.9,239.6L421.9,239.6z"
		/>
	<path class="st1" d="M155.8,292.7c0-43.2,0-86.2,0-129.2c0-43,0-86.1,0-129.1l0,0l-0.5-0.1c-0.3,0.5-0.7,1-0.9,1.5
		c-2.2,4.3-4.4,8.7-6.6,13c-3.9,7.6-7.8,15.2-11.7,22.8c-3.1,6-6,12-9.1,17.9c-3.5,6.9-7.2,13.7-10.7,20.6
		c-3.7,7.2-7.4,14.4-11,21.6c-4.2,8.2-8.4,16.4-12.6,24.7c-3.5,6.8-6.9,13.7-10.4,20.5c-3.6,7.1-7.3,14.1-10.9,21.1
		c-3.2,6.3-6.4,12.8-9.7,19.1c-3.7,7.3-7.5,14.5-11.2,21.8c-2.2,4.3-4.3,8.5-6.5,12.8c-3.7,7.3-7.5,14.5-11.2,21.8
		c-3.6,7-7.2,13.9-10.8,20.9c-4.6,9-9.2,18.1-13.9,27.2c-1.1,2.2-2.4,4.5-3.5,6.7c-1.5,2.9-2.8,5.7-4.5,9.1c36.6,0,72.8,0,109.3,0
		v46.2h46.5c0-1.1,0-2.1,0-3.2c0-13.3,0-26.6,0-39.9c0-1,0.1-2,0.2-3.1c8.6-0.1,16.9,0,25.1-0.1c0.6-3.4,0.5-42.7-0.2-44.8H155.8z
		 M109.3,292.6H63c15.2-29.8,30.4-59.4,45.5-89c0.4,0.2,0.5,0.2,0.6,0.2c0.1,0,0.2,0.1,0.2,0.2c0,0.5,0.1,1,0.1,1.6
		C109.3,234.5,109.3,263.4,109.3,292.6z"/>
	<path class="st1" d="M265,153.7c8.6-1.7,17.1-4.2,25-8.1c13-6.4,24.1-15.1,32.1-27.5c4.8-7.5,7.6-15.8,9.5-24.4
		c1.3-5.6,1.1-11.2,1.2-16.9c0-5.7-0.5-11.2-1.9-16.8c-1.5-6-3.5-11.8-6.4-17.3c-3.7-7-8.5-13.1-14.1-18.6
		c-4.9-4.8-10.5-8.8-16.6-12.2c-11.5-6.4-24-9-36.9-10.3c-3.5-0.4-7-0.5-10.4-0.7c-5.5-0.3-11-0.9-16.4-0.9C211,0,191.9,0,172.9,0
		c-1.3,0-2.5,0.4-3.7,0.5c-0.5,3.9-0.4,261,0.2,263.2c14.7,0.1,29.5,0,44.5,0c0.1-1.5,0.2-2.7,0.2-3.9c0-33.1,0-66.2,0-99.3
		c0-1.2,0.1-2.4,0.1-3.7c1.1,0,2-0.1,2.8-0.1c9.6-0.2,19.2,0.3,28.8-0.4C252.3,155.8,258.7,155,265,153.7z M216,120.1
		c-0.5,0-1-0.1-1.9-0.3l0,0c-0.1-27.7,0-55.4,0-83.2c1.2-0.1,2-0.2,2.9-0.2c8.2,0.2,16.4,0.1,24.6,0.6c9.1,0.6,18.1,2.3,26.6,5.9
		c6.4,2.7,11.8,6.7,16.2,12c1.2,1.5,2.2,3.2,3,4.9c2.2,4.6,3.7,9.4,3.6,14.6c-0.1,4.1,0,8.2-0.7,12.2c-0.6,3.4-1.8,6.7-3.3,9.8
		c-4.4,9.1-12,14.5-21.2,18c-6.8,2.6-13.8,3.8-21.1,4.6C235.1,120.2,225.6,120.1,216,120.1z"/>
	<path class="st1" d="M368.8,294.4h-90.4h0c0-1.3,0-2.3,0-3.4c0-10.2,0-20.5,0-30.7c0-21.7,0-43.3,0-65c0-1.1-0.1-2.2-0.2-3.2
		c-5.2-0.7-44.5-0.4-46.4,0.3v145c45.8,0.1,91.5,0,137.2,0.1c0.1-0.9,0.3-1.5,0.3-2.1c0-12.9,0-25.9-0.1-38.8
		C369.1,296,368.9,295.3,368.8,294.4z"/>
</g>
</svg>
